<svg width="20" height="20" viewBox="0 0 20 20" fill="none" xmlns="http://www.w3.org/2000/svg">
<g id="Group 253">
<g id="Group 243">
<g id="Ellipse 46" filter="url(#filter0_i_164_3059)">
<circle cx="10" cy="10" r="10" fill="url(#paint0_linear_164_3059)"/>
</g>
<g id="Ellipse 45" filter="url(#filter1_dd_164_3059)">
<circle cx="10.0394" cy="10.0394" r="8.9828" fill="url(#paint1_linear_164_3059)"/>
</g>
<g id="Ellipse 44">
<g filter="url(#filter2_ii_164_3059)">
<circle cx="9.9995" cy="10.0005" r="8.31786" fill="url(#paint2_linear_164_3059)"/>
</g>
<circle cx="9.9995" cy="10.0005" r="8.23711" stroke="#7D4E11" stroke-width="0.161512"/>
</g>
</g>
<g id="Group 248">
<path id="Vector" d="M7.95117 9.52592C7.95117 9.6799 8.01234 9.82758 8.12123 9.93646C8.23011 10.0453 8.37779 10.1065 8.53177 10.1065C8.68576 10.1065 8.83344 10.0453 8.94232 9.93646C9.05121 9.82758 9.11238 9.6799 9.11238 9.52592C9.11238 9.37193 9.05121 9.22425 8.94232 9.11537C8.83344 9.00648 8.68576 8.94531 8.53177 8.94531C8.37779 8.94531 8.23011 9.00648 8.12123 9.11537C8.01234 9.22425 7.95117 9.37193 7.95117 9.52592Z" fill="#7D4E11"/>
<path id="Vector_2" d="M10.9844 9.52592C10.9844 9.60216 10.9994 9.67766 11.0286 9.7481C11.0577 9.81854 11.1005 9.88255 11.1544 9.93646C11.2083 9.99038 11.2723 10.0331 11.3428 10.0623C11.4132 10.0915 11.4887 10.1065 11.565 10.1065C11.6412 10.1065 11.7167 10.0915 11.7872 10.0623C11.8576 10.0331 11.9216 9.99038 11.9755 9.93646C12.0294 9.88255 12.0722 9.81854 12.1014 9.7481C12.1306 9.67766 12.1456 9.60216 12.1456 9.52592C12.1456 9.44967 12.1306 9.37417 12.1014 9.30373C12.0722 9.23329 12.0294 9.16928 11.9755 9.11537C11.9216 9.06145 11.8576 9.01869 11.7872 8.98951C11.7167 8.96033 11.6412 8.94531 11.565 8.94531C11.4887 8.94531 11.4132 8.96033 11.3428 8.98951C11.2723 9.01869 11.2083 9.06145 11.1544 9.11537C11.1005 9.16928 11.0577 9.23329 11.0286 9.30373C10.9994 9.37417 10.9844 9.44967 10.9844 9.52592Z" fill="#7D4E11"/>
<path id="Vector_3" d="M10.0328 14.5266C7.03254 14.5266 5.21094 11.5945 5.21094 10.305C5.21094 7.84461 7.37403 5.84277 10.0328 5.84277C12.6916 5.84277 14.8547 7.84461 14.8547 10.305C14.8547 11.5675 13.2141 14.5266 10.0328 14.5266ZM10.0328 6.52922C7.75251 6.52922 5.89738 8.22295 5.89738 10.305C5.89738 11.3246 7.54554 13.8402 10.0328 13.8402C12.719 13.8402 14.1682 11.3309 14.1682 10.305C14.1682 8.22295 12.3131 6.52922 10.0328 6.52922Z" fill="#7D4E11"/>
<path id="Vector_4" d="M5.55333 10.6479C5.37061 10.6479 5.21863 10.5038 5.21074 10.3194L4.9942 5.31911C4.98866 5.19125 5.05474 5.07114 5.16557 5.00713C5.2199 4.97565 5.28184 4.95972 5.34461 4.96109C5.40738 4.96246 5.46857 4.98107 5.52147 5.01489L7.82269 6.48143C7.98256 6.58325 8.02952 6.79535 7.9277 6.95508C7.82587 7.11509 7.61405 7.16205 7.45377 7.06009L5.70849 5.94807L5.89649 10.2898C5.9048 10.479 5.75781 10.6393 5.56843 10.6475C5.56345 10.6479 5.55846 10.6479 5.55333 10.6479ZM14.5418 10.6479C14.5368 10.6479 14.5317 10.6479 14.5267 10.6476C14.3373 10.6393 14.1905 10.4792 14.1986 10.2899L14.3866 5.9482L12.6414 7.06023C12.4812 7.16192 12.2693 7.11495 12.1674 6.9555C12.0656 6.79549 12.1126 6.58353 12.2724 6.48157L14.5735 5.01503C14.6816 4.94576 14.8187 4.94285 14.9294 5.00727C15.0403 5.07114 15.1063 5.19138 15.1008 5.31925L14.8843 10.3196C14.8765 10.5037 14.7245 10.6479 14.5418 10.6479ZM15.6735 13.5109C15.6458 13.5109 15.6175 13.5075 15.5895 13.5003L12.3464 12.6834C12.1626 12.6371 12.0512 12.4505 12.0973 12.267C12.1436 12.0833 12.3308 11.9713 12.5139 12.018L15.757 12.8349C15.9409 12.8812 16.0523 13.0678 16.0061 13.2514C15.9669 13.4072 15.8271 13.5109 15.6735 13.5109ZM4.6505 13.5109C4.49686 13.5109 4.35708 13.4072 4.31787 13.2514C4.2716 13.0677 4.38298 12.8811 4.56696 12.8349L7.81008 12.018C7.99336 11.9706 8.18038 12.083 8.22666 12.267C8.27293 12.4507 8.16154 12.6373 7.97757 12.6834L4.73445 13.5003C4.70647 13.5075 4.6782 13.5109 4.6505 13.5109ZM7.76118 11.3361H3.59901C3.40936 11.3361 3.25586 11.1824 3.25586 10.993C3.25586 10.8035 3.4095 10.6498 3.59901 10.6498H7.76118C7.95083 10.6498 8.10433 10.8036 8.10433 10.993C8.10433 11.1824 7.95069 11.3361 7.76118 11.3361ZM16.6779 11.3361H12.5157C12.3261 11.3361 12.1726 11.1824 12.1726 10.993C12.1726 10.8035 12.3262 10.6498 12.5157 10.6498H16.6779C16.8675 10.6498 17.021 10.8036 17.021 10.993C17.021 11.1824 16.8674 11.3361 16.6779 11.3361Z" fill="#7D4E11"/>
<path id="Vector_5" d="M9.6582 10.5454C9.6582 10.6678 9.70682 10.7852 9.79336 10.8717C9.8799 10.9583 9.99728 11.0069 10.1197 11.0069C10.2421 11.0069 10.3594 10.9583 10.446 10.8717C10.5325 10.7852 10.5811 10.6678 10.5811 10.5454C10.5811 10.4848 10.5692 10.4248 10.546 10.3689C10.5228 10.3129 10.4888 10.262 10.446 10.2191C10.4031 10.1763 10.3522 10.1423 10.2963 10.1191C10.2403 10.0959 10.1803 10.084 10.1197 10.084C10.0591 10.084 9.99906 10.0959 9.94307 10.1191C9.88708 10.1423 9.83621 10.1763 9.79336 10.2191C9.75051 10.262 9.71652 10.3129 9.69333 10.3689C9.67014 10.4248 9.6582 10.4848 9.6582 10.5454Z" fill="#7D4E11"/>
<path id="Vector_6" d="M9.33682 12.1321C8.71604 12.1321 8.21094 11.6272 8.21094 11.0062C8.21094 10.8167 8.36457 10.6631 8.55409 10.6631C8.74375 10.6631 8.89724 10.8169 8.89724 11.0062C8.89724 11.2487 9.09438 11.4458 9.33682 11.4458C9.57925 11.4458 9.77625 11.2487 9.77625 11.0062C9.77625 10.8167 9.92989 10.6631 10.1194 10.6631C10.3089 10.6631 10.4626 10.8169 10.4626 11.0062C10.4627 11.6272 9.95759 12.1321 9.33682 12.1321Z" fill="#7D4E11"/>
<path id="Vector_7" d="M10.9013 12.1321C10.2805 12.1321 9.77539 11.6272 9.77539 11.0062C9.77539 10.8167 9.92903 10.6631 10.1185 10.6631C10.3081 10.6631 10.4617 10.8169 10.4617 11.0062C10.4617 11.2487 10.6588 11.4458 10.9013 11.4458C11.1437 11.4458 11.3407 11.2487 11.3407 11.0062C11.3407 10.8167 11.4943 10.6631 11.6839 10.6631C11.8734 10.6631 12.027 10.8169 12.027 11.0062C12.0271 11.6272 11.522 12.1321 10.9013 12.1321Z" fill="#7D4E11"/>
</g>
</g>
<defs>
<filter id="filter0_i_164_3059" x="0" y="0" width="20" height="20" filterUnits="userSpaceOnUse" color-interpolation-filters="sRGB">
<feFlood flood-opacity="0" result="BackgroundImageFix"/>
<feBlend mode="normal" in="SourceGraphic" in2="BackgroundImageFix" result="shape"/>
<feColorMatrix in="SourceAlpha" type="matrix" values="0 0 0 0 0 0 0 0 0 0 0 0 0 0 0 0 0 0 127 0" result="hardAlpha"/>
<feOffset dx="0.465116" dy="-0.155039"/>
<feComposite in2="hardAlpha" operator="arithmetic" k2="-1" k3="1"/>
<feColorMatrix type="matrix" values="0 0 0 0 0.647963 0 0 0 0 0.481999 0 0 0 0 0.120566 0 0 0 1 0"/>
<feBlend mode="normal" in2="shape" result="effect1_innerShadow_164_3059"/>
</filter>
<filter id="filter1_dd_164_3059" x="0.901602" y="0.901602" width="18.1199" height="18.2759" filterUnits="userSpaceOnUse" color-interpolation-filters="sRGB">
<feFlood flood-opacity="0" result="BackgroundImageFix"/>
<feColorMatrix in="SourceAlpha" type="matrix" values="0 0 0 0 0 0 0 0 0 0 0 0 0 0 0 0 0 0 127 0" result="hardAlpha"/>
<feOffset dx="-0.155039" dy="-0.155039"/>
<feComposite in2="hardAlpha" operator="out"/>
<feColorMatrix type="matrix" values="0 0 0 0 1 0 0 0 0 1 0 0 0 0 1 0 0 0 0.25 0"/>
<feBlend mode="normal" in2="BackgroundImageFix" result="effect1_dropShadow_164_3059"/>
<feColorMatrix in="SourceAlpha" type="matrix" values="0 0 0 0 0 0 0 0 0 0 0 0 0 0 0 0 0 0 127 0" result="hardAlpha"/>
<feOffset dy="0.155039"/>
<feComposite in2="hardAlpha" operator="out"/>
<feColorMatrix type="matrix" values="0 0 0 0 1 0 0 0 0 1 0 0 0 0 1 0 0 0 0.92 0"/>
<feBlend mode="normal" in2="effect1_dropShadow_164_3059" result="effect2_dropShadow_164_3059"/>
<feBlend mode="normal" in="SourceGraphic" in2="effect2_dropShadow_164_3059" result="shape"/>
</filter>
<filter id="filter2_ii_164_3059" x="1.52013" y="1.52111" width="16.7963" height="16.9588" filterUnits="userSpaceOnUse" color-interpolation-filters="sRGB">
<feFlood flood-opacity="0" result="BackgroundImageFix"/>
<feBlend mode="normal" in="SourceGraphic" in2="BackgroundImageFix" result="shape"/>
<feColorMatrix in="SourceAlpha" type="matrix" values="0 0 0 0 0 0 0 0 0 0 0 0 0 0 0 0 0 0 127 0" result="hardAlpha"/>
<feOffset dx="-0.161512" dy="-0.161512"/>
<feGaussianBlur stdDeviation="0.323024"/>
<feComposite in2="hardAlpha" operator="arithmetic" k2="-1" k3="1"/>
<feColorMatrix type="matrix" values="0 0 0 0 1 0 0 0 0 0.692645 0 0 0 0 0.193823 0 0 0 0.4 0"/>
<feBlend mode="normal" in2="shape" result="effect1_innerShadow_164_3059"/>
<feColorMatrix in="SourceAlpha" type="matrix" values="0 0 0 0 0 0 0 0 0 0 0 0 0 0 0 0 0 0 127 0" result="hardAlpha"/>
<feOffset dy="0.484536"/>
<feGaussianBlur stdDeviation="0.080756"/>
<feComposite in2="hardAlpha" operator="arithmetic" k2="-1" k3="1"/>
<feColorMatrix type="matrix" values="0 0 0 0 0.490196 0 0 0 0 0.305882 0 0 0 0 0.0666667 0 0 0 1 0"/>
<feBlend mode="normal" in2="effect1_innerShadow_164_3059" result="effect2_innerShadow_164_3059"/>
</filter>
<linearGradient id="paint0_linear_164_3059" x1="2.94574" y1="3.44961" x2="15.8915" y2="17.5194" gradientUnits="userSpaceOnUse">
<stop stop-color="#FEF8C7"/>
<stop offset="0.63316" stop-color="#D7A84B"/>
<stop offset="1" stop-color="#9B6520"/>
</linearGradient>
<linearGradient id="paint1_linear_164_3059" x1="4.43513" y1="3.32222" x2="15.1668" y2="17.1939" gradientUnits="userSpaceOnUse">
<stop stop-color="#CE872B"/>
<stop offset="1" stop-color="#FFF8C7"/>
</linearGradient>
<linearGradient id="paint2_linear_164_3059" x1="5.15415" y1="4.42832" x2="15.2083" y2="16.1379" gradientUnits="userSpaceOnUse">
<stop stop-color="#FFF2CD"/>
<stop offset="0.43" stop-color="#FFE6AF"/>
<stop offset="1" stop-color="#D49F5D"/>
</linearGradient>
</defs>
</svg>
