<svg width="31" height="31" viewBox="0 0 31 31" fill="none" xmlns="http://www.w3.org/2000/svg">
<g id="Frame" clip-path="url(#clip0_164_869)">
<path id="Vector" d="M16.2691 0.74849C15.985 0.73299 15.7215 0.722656 15.489 0.722656C9.25279 0.722656 3.97246 5.37782 3.20779 11.5468C2.83062 14.5745 3.59012 17.6228 5.34679 20.1338C7.09829 22.6345 9.69196 24.3963 12.6525 25.0938L12.9573 25.1662L15.4993 29.5578L18.0413 25.1662L18.3461 25.0938C21.0431 24.4583 23.4766 22.9187 25.2023 20.7487C26.9331 18.5735 27.889 15.8507 27.889 13.0762C27.889 6.56616 22.7843 1.15149 16.2691 0.74849Z" fill="#4AD8C8"/>
<path id="Vector_2" d="M15.1288 5.84805C15.4285 5.58971 15.8676 5.58971 16.1673 5.84805L22.698 11.4745C23.0338 11.769 23.0803 12.2805 22.791 12.6215C22.6411 12.8024 22.4138 12.9109 22.1761 12.9109C21.9953 12.9109 21.8093 12.8489 21.6595 12.7197L21.5561 12.6319V18.6924C21.5561 19.209 21.1376 19.6224 20.621 19.6224H10.67C10.422 19.6224 10.1843 19.5242 10.0086 19.3485C9.83296 19.1729 9.7348 18.9352 9.7348 18.6872V12.6267L9.63146 12.7197C9.4713 12.8592 9.25946 12.9264 9.04763 12.9109C8.8358 12.8902 8.63946 12.792 8.50513 12.6267C8.22096 12.2857 8.2623 11.769 8.59813 11.4797L15.1288 5.84805ZM16.3895 14.032L16.3068 14.0372C15.9296 14.0785 15.6403 14.3989 15.6455 14.7812L15.6506 18.6045H18.3993V14.993C18.3993 14.6624 18.3631 14.5384 18.296 14.4195C18.234 14.3007 18.1358 14.2025 18.0118 14.1405C17.8878 14.0734 17.769 14.0424 17.4383 14.0424H16.3895V14.032ZM13.3308 13.102H12.4525C12.2871 13.102 12.2251 13.1175 12.1631 13.1537C12.1011 13.1847 12.0546 13.2364 12.0236 13.2932C11.9926 13.3552 11.972 13.4172 11.972 13.5825V14.4919C11.972 14.6572 11.9875 14.7192 12.0236 14.7812C12.0546 14.8432 12.1063 14.8897 12.1631 14.9207C12.2251 14.9517 12.2871 14.9724 12.4525 14.9724H13.3308C13.4961 14.9724 13.5581 14.9569 13.6201 14.9207C13.6821 14.8897 13.7286 14.838 13.7596 14.7812C13.7906 14.7192 13.8113 14.6572 13.8113 14.4919V13.5825C13.8113 13.4172 13.7958 13.3552 13.7648 13.2932C13.7338 13.2312 13.6821 13.1847 13.6253 13.1537C13.5581 13.1175 13.4961 13.102 13.3308 13.102Z" fill="#142147"/>
</g>
<defs>
<clipPath id="clip0_164_869">
<rect width="31" height="31" fill="white"/>
</clipPath>
</defs>
</svg>
