<svg width="37" height="35" viewBox="0 0 37 35" fill="none" xmlns="http://www.w3.org/2000/svg">
<g id="Group 342">
<path id="Rectangle 128" d="M16.4394 5.83333C16.4394 3.49031 14.54 1.59091 12.1969 1.59091C9.85391 1.59091 7.95452 3.49031 7.95452 5.83333C7.95452 8.17636 9.85391 10.0758 12.1969 10.0758H16.4394V5.83333Z" stroke="#FFCD6B" stroke-width="3.18182"/>
<path id="Rectangle 129" d="M19.6212 5.83333C19.6212 3.49031 21.5206 1.59091 23.8636 1.59091C26.2066 1.59091 28.106 3.49031 28.106 5.83333C28.106 8.17636 26.2066 10.0758 23.8636 10.0758H19.6212V5.83333Z" stroke="#FFCD6B" stroke-width="3.18182"/>
<rect id="Rectangle 129_2" x="2.12109" y="14.8477" width="31.8182" height="20.1515" rx="1.06061" fill="#EF3B3B"/>
<rect id="Rectangle 128_2" y="9.54492" width="36.0606" height="7.42424" rx="1.06061" fill="#FF6262"/>
<path id="Rectangle 127" d="M20.1513 7.42383C20.7371 7.42383 21.2119 7.89868 21.2119 8.48443L21.2119 16.9693L14.8483 16.9693L14.8483 8.48444C14.8483 7.89868 15.3231 7.42383 15.9089 7.42383L20.1513 7.42383Z" fill="#F7B86B"/>
<path id="Rectangle 130" d="M14.8486 35L14.8486 16.9697L21.2123 16.9697L21.2123 35L14.8486 35Z" fill="#FF9342"/>
</g>
</svg>
