<svg width="12" height="11" viewBox="0 0 12 11" fill="none" xmlns="http://www.w3.org/2000/svg">
<g id="Group 608" opacity="0.8">
<path id="Vector" d="M11.9958 9.63759C11.7773 7.93617 10.8369 6.49243 9.55296 5.78508C9.8349 5.5567 10.0626 5.26854 10.2195 4.94142C10.3765 4.61429 10.4588 4.25638 10.4605 3.89356C10.4605 2.72518 9.61422 1.70963 8.44963 1.47848C8.39715 1.46849 8.34321 1.46909 8.29097 1.48024C8.23873 1.49138 8.18924 1.51285 8.14541 1.54339C8.10159 1.57392 8.0643 1.6129 8.03574 1.65804C8.00718 1.70318 7.98793 1.75357 7.97911 1.80626C7.95797 1.91254 7.97951 2.02288 8.03907 2.11341C8.09864 2.20394 8.19144 2.26739 8.29742 2.29003C9.0856 2.44729 9.6578 3.12116 9.6578 3.89356C9.6578 4.56807 9.21381 5.18068 8.55257 5.4213C8.46539 5.42643 8.38221 5.45967 8.3155 5.51602C8.24878 5.57238 8.20211 5.64883 8.18248 5.73392C8.15597 5.83914 8.17174 5.95056 8.2264 6.0443C8.28106 6.13803 8.37026 6.20663 8.47489 6.23538C9.75316 6.56379 10.7738 7.75807 11.1173 9.2776H0.824816C0.998495 7.63049 2.1934 6.23791 3.79504 5.88613C3.88599 5.86502 3.96703 5.81353 4.02478 5.74016C4.08253 5.66679 4.11355 5.57593 4.11271 5.48256C4.11453 5.39788 4.09032 5.31467 4.04333 5.24419C3.99635 5.17371 3.92886 5.11936 3.84998 5.08847C3.01254 4.7708 2.45045 3.94282 2.45045 3.02769C2.45045 1.81447 3.40915 0.827342 4.58701 0.827342C5.76487 0.827342 6.72294 1.81447 6.72294 3.02769C6.72294 3.93714 6.16717 4.76132 5.3392 5.08279C5.30924 5.09302 5.28062 5.10681 5.25394 5.12384L5.25015 5.12573C5.24372 5.12978 5.23741 5.13399 5.2312 5.13836L5.22804 5.14152C5.176 5.18125 5.13385 5.23248 5.10489 5.2912V5.29183C5.06589 5.37265 5.05351 5.46374 5.06952 5.55203V5.55519C5.07049 5.55984 5.07155 5.56447 5.07268 5.56909L5.07394 5.5754C5.07494 5.57963 5.07599 5.58384 5.0771 5.58803L5.07963 5.59561L5.08279 5.60635L5.08594 5.61519L5.08721 5.61961L5.08973 5.62593C5.09935 5.65196 5.11163 5.67693 5.12636 5.70045L5.12826 5.70361C5.13112 5.70808 5.13407 5.71251 5.1371 5.71687L5.13963 5.72003L5.14847 5.73266L5.15163 5.73645L5.16047 5.74782L5.16489 5.75224L5.1731 5.76171L5.17941 5.76803C5.1817 5.77058 5.18401 5.77311 5.18636 5.77561L5.1952 5.78382L5.20026 5.78824C5.20418 5.7919 5.20818 5.79548 5.21226 5.79897L5.21415 5.80024C5.25982 5.83776 5.31335 5.86452 5.37078 5.87855L5.38025 5.88108C6.70779 6.17223 7.78649 7.18209 8.197 8.51531C8.22134 8.59807 8.27159 8.67084 8.34037 8.72291C8.40915 8.77498 8.49283 8.8036 8.57909 8.80456C8.6203 8.80456 8.66124 8.79795 8.70035 8.78498C8.80315 8.74981 8.88808 8.67577 8.93695 8.57873C8.98583 8.4817 8.99475 8.36938 8.96182 8.26584C8.56141 6.96104 7.63176 5.91265 6.4419 5.37078C6.78199 5.08242 7.05517 4.72344 7.24244 4.3188C7.42971 3.91415 7.52657 3.47357 7.52629 3.02769C7.52692 1.35848 6.20822 0 4.58764 0C2.96706 0 1.64837 1.35785 1.64837 3.02769C1.64837 3.95103 2.0633 4.80995 2.73781 5.37457C1.10839 6.11791 0 7.80607 0 9.69127C0 9.9199 0.179363 10.1049 0.401671 10.1049H11.3049C11.3567 10.1049 11.406 10.0948 11.4514 10.0765C11.5146 10.1023 11.5834 10.111 11.651 10.1018C11.7581 10.0854 11.8545 10.0274 11.9191 9.94032C11.9836 9.85327 12.0112 9.74425 11.9958 9.63696V9.63759Z" fill="white"/>
</g>
</svg>
