<svg width="20" height="20" viewBox="0 0 20 20" fill="none" xmlns="http://www.w3.org/2000/svg">
<path id="Vector" d="M13.8462 13.8462H16.9231V10.7692H20V15.3846H16.9231V16.9231H13.8462V15.3846H10.7692V10.7692H13.8462V13.8462ZM0 10.7692H9.23077V20H0V10.7692ZM3.07692 13.8462V16.9231H6.15385V13.8462H3.07692ZM0 0H9.23077V9.23077H0V0ZM3.07692 3.07692V6.15385H6.15385V3.07692H3.07692ZM10.7692 0H20V9.23077H10.7692V0ZM13.8462 3.07692V6.15385H16.9231V3.07692H13.8462ZM16.9231 16.9231H20V20H16.9231V16.9231ZM10.7692 16.9231H13.8462V20H10.7692V16.9231Z" fill="#6A6A6A"/>
</svg>
