<svg width="20" height="20" viewBox="0 0 20 20" fill="none" xmlns="http://www.w3.org/2000/svg">
<path id="Vector" d="M12.8947 0H1.8421C1.35355 6.54317e-09 0.885002 0.194078 0.539539 0.53954C0.194078 0.885002 0 1.35355 0 1.84211V12.8947C0 13.3833 0.194078 13.8518 0.539539 14.1973C0.885002 14.5428 1.35355 14.7368 1.8421 14.7368H12.8947C13.3833 14.7368 13.8518 14.5428 14.1973 14.1973C14.5428 13.8518 14.7368 13.3833 14.7368 12.8947V1.84211C14.7368 1.35355 14.5428 0.885002 14.1973 0.53954C13.8518 0.194078 13.3833 0 12.8947 0ZM12.8947 1.57895C12.9645 1.57895 13.0315 1.60667 13.0808 1.65602C13.1302 1.70538 13.1579 1.77231 13.1579 1.84211V12.8947C13.1579 12.9293 13.1511 12.9635 13.1379 12.9954C13.1246 13.0274 13.1053 13.0564 13.0808 13.0808C13.0564 13.1053 13.0274 13.1246 12.9954 13.1379C12.9635 13.1511 12.9293 13.1579 12.8947 13.1579H1.8421C1.77231 13.1579 1.70538 13.1302 1.65602 13.0808C1.60667 13.0315 1.57895 12.9645 1.57895 12.8947V1.84211C1.57895 1.77231 1.60667 1.70538 1.65602 1.65602C1.70538 1.60667 1.77231 1.57895 1.8421 1.57895H12.8947ZM6.8421 16.3158C6.8421 16.1064 6.75893 15.9056 6.61087 15.7575C6.46282 15.6095 6.26201 15.5263 6.05263 15.5263C5.84325 15.5263 5.64244 15.6095 5.49439 15.7575C5.34633 15.9056 5.26316 16.1064 5.26316 16.3158V18.1579C5.26316 18.6465 5.45724 19.115 5.8027 19.4605C6.14816 19.8059 6.61671 20 7.10526 20H18.1579C18.6465 20 19.115 19.8059 19.4605 19.4605C19.8059 19.115 20 18.6465 20 18.1579V7.10526C20 6.61671 19.8059 6.14816 19.4605 5.8027C19.115 5.45724 18.6465 5.26316 18.1579 5.26316H16.3158C16.1064 5.26316 15.9056 5.34633 15.7575 5.49439C15.6095 5.64245 15.5263 5.84325 15.5263 6.05263C15.5263 6.26201 15.6095 6.46282 15.7575 6.61087C15.9056 6.75893 16.1064 6.84211 16.3158 6.84211H18.1579C18.2277 6.84211 18.2946 6.86983 18.344 6.91918C18.3933 6.96853 18.4211 7.03547 18.4211 7.10526V18.1579C18.4211 18.2277 18.3933 18.2946 18.344 18.344C18.2946 18.3933 18.2277 18.4211 18.1579 18.4211H7.10526C7.03547 18.4211 6.96853 18.3933 6.91918 18.344C6.86983 18.2946 6.8421 18.2277 6.8421 18.1579V16.3158Z" fill="#2CA7FF"/>
</svg>
