<svg width="20" height="20" viewBox="0 0 20 20" fill="none" xmlns="http://www.w3.org/2000/svg">
<g id="Frame">
<path id="Vector" d="M10.125 17C9.93748 17 9.68748 16.9375 9.49998 16.875L6.49998 15.5C6.06248 15.3125 5.81248 14.875 5.81248 14.4375L5.62498 8.75L2.31248 5.625C1.87498 5.125 1.74998 4.5 1.99998 3.9375C2.24998 3.375 2.81248 3 3.37498 3H13.5625C14.1875 3 14.6875 3.375 14.9375 3.9375C15.1875 4.5 15.0625 5.125 14.625 5.5625L11.625 8.75V15.4375C11.625 15.9375 11.375 16.4375 10.9375 16.6875C10.6875 16.875 10.375 17 10.125 17ZM3.37498 4.25C3.24998 4.25 3.18748 4.375 3.12498 4.4375C3.06248 4.5 3.12498 4.625 3.18748 4.6875L6.49998 7.875C6.74998 8.125 6.87498 8.4375 6.87498 8.75L7.06248 14.375L9.99998 15.75C10.125 15.8125 10.1875 15.75 10.25 15.75C10.3125 15.75 10.375 15.625 10.375 15.5625V8.75C10.375 8.4375 10.5 8.125 10.6875 7.9375L13.75 4.6875C13.875 4.5625 13.8125 4.4375 13.8125 4.4375C13.8125 4.375 13.75 4.25 13.5625 4.25H3.37498Z" fill="white"/>
<path id="Vector_2" d="M17.5 11.8125H13.6875C13.3125 11.8125 13.0625 11.5625 13.0625 11.1875C13.0625 10.8125 13.3125 10.5625 13.6875 10.5625H17.5C17.875 10.5625 18.125 10.8125 18.125 11.1875C18.125 11.5625 17.875 11.8125 17.5 11.8125ZM17.5 14.75H13.6875C13.3125 14.75 13.0625 14.5 13.0625 14.125C13.0625 13.75 13.3125 13.5 13.6875 13.5H17.5C17.875 13.5 18.125 13.75 18.125 14.125C18.125 14.5 17.875 14.75 17.5 14.75Z" fill="white"/>
</g>
</svg>
