<svg width="22" height="22" viewBox="0 0 22 22" fill="none" xmlns="http://www.w3.org/2000/svg">
<g id="Group 569">
<path id="Vector" d="M11 22C17.0751 22 22 17.0751 22 11C22 4.92487 17.0751 0 11 0C4.92487 0 0 4.92487 0 11C0 17.0751 4.92487 22 11 22Z" fill="#606060"/>
<path id="Vector_2" d="M15.1922 9.45026H14.2674V7.28647C14.2674 5.47345 12.8023 4 10.9999 4C9.19769 4 7.731 5.47345 7.731 7.28647V9.45026H6.80694C6.36115 9.45026 6 9.81362 6 10.262V16.1875C6 16.6365 6.36115 17 6.80694 17H15.193C15.6388 17 16 16.6365 16 16.1875V10.262C16 9.81361 15.6388 9.45023 15.1922 9.45023V9.45026ZM11.453 13.3794V14.6728C11.453 14.7308 11.4054 14.7799 11.3476 14.7799H10.6532C10.5945 14.7799 10.547 14.7308 10.547 14.6728V13.3794C10.2208 13.2113 9.99506 12.8756 9.99506 12.4821C9.99506 11.9242 10.4456 11.4711 10.9999 11.4711C11.5544 11.4711 12.0041 11.9242 12.0041 12.4821C12.0057 12.8756 11.7792 13.2113 11.453 13.3794L11.453 13.3794ZM13.0129 9.45026H8.98698V7.33967C8.98698 6.22328 9.89135 5.31478 11.0008 5.31478C12.111 5.31478 13.0129 6.22328 13.0129 7.33967V9.45026H13.0129Z" fill="#FFFFFE"/>
</g>
</svg>
