<svg width="24" height="24" viewBox="0 0 24 24" fill="none" xmlns="http://www.w3.org/2000/svg">
<g id="Group 252">
<g id="Group 243">
<g id="Ellipse 46" filter="url(#filter0_i_417_11025)">
<circle cx="12" cy="12" r="12" fill="url(#paint0_linear_417_11025)"/>
</g>
<g id="Ellipse 45" filter="url(#filter1_dd_417_11025)">
<circle cx="12.0479" cy="12.0474" r="10.7794" fill="url(#paint1_linear_417_11025)"/>
</g>
<g id="Ellipse 44">
<g filter="url(#filter2_ii_417_11025)">
<circle cx="12" cy="12" r="9.98144" fill="url(#paint2_linear_417_11025)"/>
</g>
<circle cx="12" cy="12" r="9.88453" stroke="#7D4E11" stroke-width="0.193814"/>
</g>
</g>
<g id="Group 248">
<path id="Vector" d="M9.54102 11.4311C9.54102 11.6159 9.61442 11.7931 9.74508 11.9238C9.87574 12.0544 10.053 12.1278 10.2377 12.1278C10.4225 12.1278 10.5997 12.0544 10.7304 11.9238C10.8611 11.7931 10.9345 11.6159 10.9345 11.4311C10.9345 11.2463 10.8611 11.0691 10.7304 10.9384C10.5997 10.8078 10.4225 10.7344 10.2377 10.7344C10.053 10.7344 9.87574 10.8078 9.74508 10.9384C9.61442 11.0691 9.54102 11.2463 9.54102 11.4311Z" fill="#7D4E11"/>
<path id="Vector_2" d="M13.1807 11.4311C13.1807 11.5226 13.1987 11.6132 13.2337 11.6977C13.2687 11.7823 13.32 11.8591 13.3847 11.9238C13.4494 11.9885 13.5262 12.0398 13.6108 12.0748C13.6953 12.1098 13.7859 12.1278 13.8774 12.1278C13.9689 12.1278 14.0595 12.1098 14.144 12.0748C14.2285 12.0398 14.3053 11.9885 14.37 11.9238C14.4347 11.8591 14.4861 11.7823 14.5211 11.6977C14.5561 11.6132 14.5741 11.5226 14.5741 11.4311C14.5741 11.3396 14.5561 11.249 14.5211 11.1645C14.4861 11.0799 14.4347 11.0031 14.37 10.9384C14.3053 10.8737 14.2285 10.8224 14.144 10.7874C14.0595 10.7524 13.9689 10.7344 13.8774 10.7344C13.7859 10.7344 13.6953 10.7524 13.6108 10.7874C13.5262 10.8224 13.4494 10.8737 13.3847 10.9384C13.32 11.0031 13.2687 11.0799 13.2337 11.1645C13.1987 11.249 13.1807 11.3396 13.1807 11.4311Z" fill="#7D4E11"/>
<path id="Vector_3" d="M12.0392 17.4318C8.43886 17.4318 6.25293 13.9133 6.25293 12.3659C6.25293 9.41344 8.84864 7.01123 12.0392 7.01123C15.2297 7.01123 17.8254 9.41344 17.8254 12.3659C17.8254 13.8809 15.8568 17.4318 12.0392 17.4318ZM12.0392 7.83496C9.30282 7.83496 7.07666 9.86745 7.07666 12.3659C7.07666 13.5895 9.05445 16.6081 12.0392 16.6081C15.2626 16.6081 17.0017 13.5969 17.0017 12.3659C17.0017 9.86745 14.7755 7.83496 12.0392 7.83496Z" fill="#7D4E11"/>
<path id="Vector_4" d="M6.6642 12.778C6.44492 12.778 6.26255 12.6051 6.25308 12.3838L5.99324 6.38343C5.98659 6.22998 6.06589 6.08585 6.19888 6.00905C6.26407 5.97127 6.3384 5.95215 6.41373 5.95379C6.48905 5.95544 6.56248 5.97777 6.62596 6.01836L9.38742 7.7782C9.57926 7.90039 9.63562 8.15491 9.51343 8.34659C9.39124 8.5386 9.13706 8.59495 8.94471 8.4726L6.85039 7.13817L7.07598 12.3482C7.08595 12.5753 6.90957 12.7676 6.68232 12.7775C6.67633 12.778 6.67035 12.778 6.6642 12.778ZM17.4504 12.778C17.4444 12.778 17.4382 12.778 17.4322 12.7776C17.205 12.7676 17.0288 12.5755 17.0386 12.3484L17.2642 7.13833L15.1698 8.47276C14.9777 8.59479 14.7233 8.53843 14.6011 8.34708C14.4789 8.15507 14.5353 7.90072 14.7271 7.77837L17.4884 6.01852C17.6181 5.9354 17.7827 5.93191 17.9155 6.00921C18.0485 6.08585 18.1278 6.23015 18.1211 6.38359L17.8613 12.384C17.852 12.6049 17.6696 12.778 17.4504 12.778ZM18.8084 16.2135C18.7751 16.2135 18.7412 16.2095 18.7076 16.2009L14.8159 15.2206C14.5953 15.165 14.4616 14.9411 14.517 14.7208C14.5725 14.5004 14.7971 14.3661 15.0169 14.4221L18.9086 15.4024C19.1292 15.458 19.2629 15.6819 19.2075 15.9022C19.1605 16.0892 18.9928 16.2135 18.8084 16.2135ZM5.58079 16.2135C5.39643 16.2135 5.22869 16.0892 5.18164 15.9022C5.12612 15.6817 5.25978 15.4578 5.48055 15.4024L9.37229 14.4221C9.59223 14.3652 9.81666 14.5001 9.87218 14.7208C9.92771 14.9413 9.79405 15.1652 9.57328 15.2206L5.68154 16.2009C5.64795 16.2095 5.61404 16.2135 5.58079 16.2135ZM9.31361 13.6038H4.31901C4.09142 13.6038 3.90723 13.4193 3.90723 13.1921C3.90723 12.9646 4.09159 12.7803 4.31901 12.7803H9.31361C9.54119 12.7803 9.72539 12.9648 9.72539 13.1921C9.72539 13.4193 9.54103 13.6038 9.31361 13.6038ZM20.0137 13.6038H15.0191C14.7915 13.6038 14.6073 13.4193 14.6073 13.1921C14.6073 12.9646 14.7916 12.7803 15.0191 12.7803H20.0137C20.2412 12.7803 20.4254 12.9648 20.4254 13.1921C20.4254 13.4193 20.2411 13.6038 20.0137 13.6038Z" fill="#7D4E11"/>
<path id="Vector_5" d="M11.5898 12.6548C11.5898 12.8017 11.6482 12.9425 11.752 13.0464C11.8559 13.1502 11.9967 13.2086 12.1436 13.2086C12.2905 13.2086 12.4313 13.1502 12.5352 13.0464C12.639 12.9425 12.6974 12.8017 12.6974 12.6548C12.6974 12.5821 12.683 12.5101 12.6552 12.4429C12.6274 12.3757 12.5866 12.3147 12.5352 12.2633C12.4837 12.2118 12.4227 12.1711 12.3555 12.1432C12.2883 12.1154 12.2163 12.1011 12.1436 12.1011C12.0709 12.1011 11.9989 12.1154 11.9317 12.1432C11.8645 12.1711 11.8035 12.2118 11.752 12.2633C11.7006 12.3147 11.6598 12.3757 11.632 12.4429C11.6042 12.5101 11.5898 12.5821 11.5898 12.6548Z" fill="#7D4E11"/>
<path id="Vector_6" d="M11.2046 14.5592C10.4596 14.5592 9.85352 13.9533 9.85352 13.2082C9.85352 12.9808 10.0379 12.7964 10.2653 12.7964C10.4929 12.7964 10.6771 12.9809 10.6771 13.2082C10.6771 13.4991 10.9136 13.7357 11.2046 13.7357C11.4955 13.7357 11.7319 13.4991 11.7319 13.2082C11.7319 12.9808 11.9163 12.7964 12.1437 12.7964C12.3711 12.7964 12.5555 12.9809 12.5555 13.2082C12.5556 13.9533 11.9495 14.5592 11.2046 14.5592Z" fill="#7D4E11"/>
<path id="Vector_7" d="M13.0825 14.5592C12.3376 14.5592 11.7314 13.9533 11.7314 13.2082C11.7314 12.9808 11.9158 12.7964 12.1432 12.7964C12.3706 12.7964 12.555 12.9809 12.555 13.2082C12.555 13.4991 12.7916 13.7357 13.0825 13.7357C13.3734 13.7357 13.6098 13.4991 13.6098 13.2082C13.6098 12.9808 13.7942 12.7964 14.0216 12.7964C14.249 12.7964 14.4334 12.9809 14.4334 13.2082C14.4336 13.9533 13.8274 14.5592 13.0825 14.5592Z" fill="#7D4E11"/>
</g>
</g>
<defs>
<filter id="filter0_i_417_11025" x="0" y="0" width="24" height="24" filterUnits="userSpaceOnUse" color-interpolation-filters="sRGB">
<feFlood flood-opacity="0" result="BackgroundImageFix"/>
<feBlend mode="normal" in="SourceGraphic" in2="BackgroundImageFix" result="shape"/>
<feColorMatrix in="SourceAlpha" type="matrix" values="0 0 0 0 0 0 0 0 0 0 0 0 0 0 0 0 0 0 127 0" result="hardAlpha"/>
<feOffset dx="0.55814" dy="-0.186047"/>
<feComposite in2="hardAlpha" operator="arithmetic" k2="-1" k3="1"/>
<feColorMatrix type="matrix" values="0 0 0 0 0.647963 0 0 0 0 0.481999 0 0 0 0 0.120566 0 0 0 1 0"/>
<feBlend mode="normal" in2="shape" result="effect1_innerShadow_417_11025"/>
</filter>
<filter id="filter1_dd_417_11025" x="1.08251" y="1.08202" width="21.7446" height="21.9307" filterUnits="userSpaceOnUse" color-interpolation-filters="sRGB">
<feFlood flood-opacity="0" result="BackgroundImageFix"/>
<feColorMatrix in="SourceAlpha" type="matrix" values="0 0 0 0 0 0 0 0 0 0 0 0 0 0 0 0 0 0 127 0" result="hardAlpha"/>
<feOffset dx="-0.186047" dy="-0.186047"/>
<feComposite in2="hardAlpha" operator="out"/>
<feColorMatrix type="matrix" values="0 0 0 0 1 0 0 0 0 1 0 0 0 0 1 0 0 0 0.25 0"/>
<feBlend mode="normal" in2="BackgroundImageFix" result="effect1_dropShadow_417_11025"/>
<feColorMatrix in="SourceAlpha" type="matrix" values="0 0 0 0 0 0 0 0 0 0 0 0 0 0 0 0 0 0 127 0" result="hardAlpha"/>
<feOffset dy="0.186047"/>
<feComposite in2="hardAlpha" operator="out"/>
<feColorMatrix type="matrix" values="0 0 0 0 1 0 0 0 0 1 0 0 0 0 1 0 0 0 0.92 0"/>
<feBlend mode="normal" in2="effect1_dropShadow_417_11025" result="effect2_dropShadow_417_11025"/>
<feBlend mode="normal" in="SourceGraphic" in2="effect2_dropShadow_417_11025" result="shape"/>
</filter>
<filter id="filter2_ii_417_11025" x="1.82474" y="1.82474" width="20.1567" height="20.3505" filterUnits="userSpaceOnUse" color-interpolation-filters="sRGB">
<feFlood flood-opacity="0" result="BackgroundImageFix"/>
<feBlend mode="normal" in="SourceGraphic" in2="BackgroundImageFix" result="shape"/>
<feColorMatrix in="SourceAlpha" type="matrix" values="0 0 0 0 0 0 0 0 0 0 0 0 0 0 0 0 0 0 127 0" result="hardAlpha"/>
<feOffset dx="-0.193814" dy="-0.193814"/>
<feGaussianBlur stdDeviation="0.387629"/>
<feComposite in2="hardAlpha" operator="arithmetic" k2="-1" k3="1"/>
<feColorMatrix type="matrix" values="0 0 0 0 1 0 0 0 0 0.692645 0 0 0 0 0.193823 0 0 0 0.4 0"/>
<feBlend mode="normal" in2="shape" result="effect1_innerShadow_417_11025"/>
<feColorMatrix in="SourceAlpha" type="matrix" values="0 0 0 0 0 0 0 0 0 0 0 0 0 0 0 0 0 0 127 0" result="hardAlpha"/>
<feOffset dy="0.581443"/>
<feGaussianBlur stdDeviation="0.0969071"/>
<feComposite in2="hardAlpha" operator="arithmetic" k2="-1" k3="1"/>
<feColorMatrix type="matrix" values="0 0 0 0 0.490196 0 0 0 0 0.305882 0 0 0 0 0.0666667 0 0 0 1 0"/>
<feBlend mode="normal" in2="effect1_innerShadow_417_11025" result="effect2_innerShadow_417_11025"/>
</filter>
<linearGradient id="paint0_linear_417_11025" x1="3.53488" y1="4.13953" x2="19.0698" y2="21.0233" gradientUnits="userSpaceOnUse">
<stop stop-color="#FEF8C7"/>
<stop offset="0.63316" stop-color="#D7A84B"/>
<stop offset="1" stop-color="#9B6520"/>
</linearGradient>
<linearGradient id="paint1_linear_417_11025" x1="5.32274" y1="3.98676" x2="18.2007" y2="20.6328" gradientUnits="userSpaceOnUse">
<stop stop-color="#CE872B"/>
<stop offset="1" stop-color="#FFF8C7"/>
</linearGradient>
<linearGradient id="paint2_linear_417_11025" x1="6.18556" y1="5.3134" x2="18.2505" y2="19.3649" gradientUnits="userSpaceOnUse">
<stop stop-color="#FFF2CD"/>
<stop offset="0.43" stop-color="#FFE6AF"/>
<stop offset="1" stop-color="#D49F5D"/>
</linearGradient>
</defs>
</svg>
