<svg width="32" height="32" viewBox="0 0 32 32" fill="none" xmlns="http://www.w3.org/2000/svg">
<g id="Frame 101">
<g id="Group 821">
<path id="Vector 7 (Stroke)" d="M28.493 11.2877C29.8357 9.96367 29.8357 7.81411 28.493 6.49012C27.1543 5.16996 24.9866 5.16996 23.6478 6.49012L12.1549 17.8234L8.35217 14.0735C7.01342 12.7533 4.84573 12.7533 3.50698 14.0735C2.16434 15.3974 2.16434 17.547 3.50698 18.871L9.73233 25.0099C11.0711 26.33 13.2388 26.33 14.5775 25.0099L28.493 11.2877Z" fill="#9CFF68" stroke="black" stroke-linecap="round" stroke-linejoin="round"/>
<path id="Checkmark" fill-rule="evenodd" clip-rule="evenodd" d="M28.9483 8.34717C28.8424 8.89709 28.5736 9.42253 28.1419 9.84818L14.2265 23.5704C13.0824 24.6986 11.2275 24.6986 10.0834 23.5704L3.85805 17.4315C3.4264 17.0059 3.15761 16.4804 3.05168 15.9305C2.87684 16.8381 3.14563 17.8125 3.85805 18.515L10.0834 24.6539C11.2275 25.7821 13.0824 25.7821 14.2265 24.6539L28.1419 10.9316C28.8544 10.2291 29.1232 9.2548 28.9483 8.34717Z" fill="#43852B"/>
</g>
</g>
</svg>
