<svg width="197" height="45" viewBox="0 0 197 45" fill="none" xmlns="http://www.w3.org/2000/svg">
<g id="tomup" clip-path="url(#clip0_475_452)">
<path id="Vector" d="M108.034 23.2562C106.533 26.0473 105.422 28.7653 103.75 31.0763C101.614 34.0099 98.1063 33.6396 96.2631 30.5067C95.5568 29.2019 94.9594 27.841 94.4769 26.4379C93.9561 25.079 93.5452 23.6752 92.7233 22.3692C92.882 25.1929 93.1302 28.0166 93.1627 30.8444C93.2189 33.2783 93.091 35.7129 92.7803 38.1275C92.3734 41.1384 90.5669 42.8473 88.0117 43.1972C84.6672 43.6529 82.1486 42.6113 80.871 39.812C79.9549 37.9233 79.3608 35.8949 79.1133 33.8105C78.4745 26.4868 78.4175 19.1386 80.6757 12.0386C81.4297 9.66002 82.5826 7.42698 84.0853 5.43498C87.3892 1.14244 93.7649 1.50049 96.4015 6.22025C97.9557 9.00328 98.7369 12.2339 99.7419 15.3017C100.108 16.4288 100.108 17.6738 100.584 18.9066C100.82 17.6006 101.072 16.2986 101.284 14.9844C101.854 11.4201 102.846 8.06747 104.734 4.8857C107.298 0.576878 114.682 0.214759 117.925 4.75957C120.167 7.90065 121.017 11.4771 121.457 15.2163C122.291 22.2308 122.958 29.2495 121.754 36.2843C121.266 39.1325 120.533 41.8341 118.031 43.6976C114.174 46.5742 108.067 44.487 107.607 39.7468C107.171 35.2712 107.627 30.7061 107.725 26.1816C107.725 25.2499 107.916 24.3222 108.034 23.2562Z" fill="white"/>
<path id="Vector_2" d="M55.4609 41.2038C49.3577 41.1306 43.7428 39.7961 39.4218 35.1251C34.9462 30.2711 34.1812 24.3348 35.2961 18.1869C37.306 7.11169 46.4404 0.219207 57.6743 0.951584C69.6568 1.72872 78.3721 13.3166 76.2116 25.1485C74.2382 35.9796 65.9501 41.3015 55.4609 41.2038ZM54.582 13.5607C54.2769 13.5973 53.5974 13.638 52.9545 13.7722C49.5449 14.468 47.6651 16.6204 47.6651 19.7208C47.6651 22.8212 49.5408 25.0102 53.0359 25.4984C54.7035 25.6868 56.3905 25.6058 58.0323 25.2584C60.5468 24.7783 62.215 22.5893 62.3371 20.0382C62.5242 16.1606 59.5296 13.5363 54.582 13.5607Z" fill="white"/>
<path id="Vector_3" d="M160.346 21.5682C160.504 26.1008 160.752 30.6375 158.942 34.9951C157.567 38.3234 155.349 40.8053 152.045 42.0259C145.665 44.3899 139.143 44.5282 132.772 42.0544C127.889 40.1624 126.221 35.8374 125.586 31.0688C124.687 24.278 125.44 17.5361 126.42 10.8063C126.852 7.84834 127.592 5.11007 129.968 3.07569C131.803 1.50108 136.071 1.11861 138.48 2.34738C140.579 3.41746 141.617 5.76107 141.121 8.85739C140.502 12.7349 139.697 16.588 139.042 20.4615C138.837 21.734 138.742 23.0218 138.757 24.3106C138.757 26.8739 140.331 28.3468 142.98 28.4241C145.629 28.5014 147.407 27 147.26 24.396C147.016 19.9204 146.447 15.4895 146.04 11.0301C145.853 9.4097 145.803 7.77645 145.889 6.1476C146.158 2.83969 147.887 1.11861 151.114 0.646636C154.409 0.162453 157.595 1.56618 158.364 4.49975C159.341 8.2064 159.8 12.0595 160.289 15.8923C160.541 17.7436 160.346 19.6681 160.346 21.5682Z" fill="white"/>
<path id="Vector_4" d="M21.9267 16.9493C22.7404 19.9927 23.7129 22.8042 24.2052 25.6971C24.8311 29.1505 25.1767 32.6488 25.2387 36.1579C25.2387 39.12 24.018 41.9274 20.9746 42.9405C17.3493 44.1611 13.4067 44.5355 10.644 41.2479C9.30959 39.5622 8.61099 37.4607 8.67067 35.3116C8.93921 31.2998 9.8913 27.3165 10.7783 23.3738C11.2503 21.2988 12.2024 19.3336 13.0324 17.0551C11.9438 17.2685 10.8452 17.4274 9.74076 17.5311C8.13024 17.6614 6.51136 17.6492 4.903 17.4945C2.49022 17.1731 0.878991 15.8344 0.293089 13.3037C-0.894989 8.16481 1.56254 3.47352 6.62815 1.95994C14.1205 -0.344094 22.1308 -0.354004 29.6289 1.93147C33.8197 3.19279 35.5245 6.84246 34.6172 11.9528C33.9784 15.5252 31.3622 17.5514 27.269 17.4741C25.5967 17.4416 23.9326 17.1568 21.9267 16.9493Z" fill="white"/>
<path id="Vector_5" d="M178.993 27.3611C179.213 30.2093 179.473 32.6871 179.591 35.1772C179.949 42.9079 173.854 44.9138 168.276 43.0706C165.359 42.1063 164.468 39.4087 164.138 36.7966C163.129 28.8055 163.194 20.8145 165.688 13.0554C167.316 8.03043 170.611 4.53536 175.889 3.26184C181.524 1.8988 187.127 1.78895 192.054 5.29622C198.377 9.80848 198.01 20.9121 191.602 25.4162C188.542 27.5686 185.153 28.0569 181.548 27.6785C180.759 27.6012 179.974 27.5076 178.993 27.3611ZM181.597 21.1969C185.979 21.2254 188.884 18.8045 188.921 15.0938C188.974 11.5051 186.886 9.58063 182.94 9.58063C178.631 9.58063 175.563 12.2009 175.498 15.9401C175.457 19.1178 177.833 21.1766 181.597 21.1969Z" fill="white"/>
</g>
<defs>
<clipPath id="clip0_475_452">
<rect width="196.607" height="44.7767" fill="white" transform="translate(0 0.222656)"/>
</clipPath>
</defs>
</svg>
