<svg width="140" height="142" viewBox="0 0 140 142" fill="none" xmlns="http://www.w3.org/2000/svg">
<g id="&#230;&#156;&#170;&#230;&#160;&#135;&#233;&#162;&#152;-2" clip-path="url(#clip0_475_442)">
<path id="Vector" d="M29.7853 141.598C30.1027 141.598 30.416 141.598 30.7333 141.598C32.015 141.549 32.841 140.76 32.902 139.563C32.9388 139.28 32.9182 138.992 32.8415 138.717C32.7648 138.441 32.6336 138.184 32.4556 137.961C32.2776 137.737 32.0564 137.552 31.8053 137.415C31.5542 137.279 31.2782 137.194 30.9937 137.167C30.4445 137.085 29.8952 137.024 29.3418 136.992C26.6771 136.832 24.0576 136.23 21.5908 135.21C16.9315 133.353 12.944 130.129 10.1535 125.961C7.94999 122.796 6.46928 119.184 5.81623 115.383C5.6128 114.109 5.58839 112.803 5.33206 111.542C5.27927 111.213 5.15315 110.901 4.96308 110.628C4.77302 110.355 4.52388 110.129 4.2342 109.965C3.94452 109.802 3.62173 109.706 3.28983 109.684C2.95793 109.663 2.62545 109.716 2.3171 109.841C1.27143 110.219 0.77097 111.322 0.909308 112.811C1.22418 116.605 2.17603 120.319 3.72489 123.797C5.11188 126.909 7.00509 129.771 9.32758 132.264C11.9597 135.119 15.1431 137.411 18.6857 139.002C22.1874 140.563 25.9543 141.444 29.7853 141.598Z" fill="white"/>
<path id="Vector_2" d="M110.745 0.00390625C110.338 0.00390625 109.931 0.00390625 109.557 0.00390625C109.201 0.0177185 108.855 0.12474 108.553 0.314272C108.252 0.503805 108.005 0.769203 107.838 1.08392C107.672 1.39864 107.59 1.75164 107.603 2.10763C107.615 2.46362 107.721 2.8101 107.909 3.11244C108.548 4.20287 109.586 4.33307 110.688 4.47547C112.21 4.604 113.724 4.82137 115.221 5.12648C118.784 5.93068 122.121 7.52408 124.986 9.78927C127.762 11.9411 130.055 14.6509 131.72 17.7437C133.669 21.4259 134.901 25.3075 135.028 29.5146C135.016 29.8343 135.072 30.1529 135.191 30.4496C135.311 30.7462 135.492 31.0143 135.722 31.2362C135.953 31.4581 136.227 31.629 136.528 31.7376C136.829 31.8462 137.15 31.8901 137.469 31.8664C138.73 31.7972 139.662 30.6458 139.609 29.1973C139.446 25.7655 138.692 22.3876 137.379 19.2125C135.186 13.74 131.821 9.13014 127 5.65135C124.165 3.5733 120.972 2.03539 117.581 1.11468C115.358 0.458673 113.061 0.0854762 110.745 0.00390625Z" fill="white"/>
<path id="Vector_3" d="M31.645 122.697C31.645 121.477 31.2788 120.964 30.1396 120.582C29.8628 120.495 29.5817 120.423 29.2973 120.366C26.0423 119.682 24.2317 117.774 23.6987 114.544C23.6701 114.149 23.5621 113.764 23.3813 113.412C23.0973 112.914 22.693 112.494 22.2055 112.192C20.46 111.35 18.804 112.77 19.1214 114.877C19.5608 117.794 20.6593 120.407 22.9582 122.388C24.7172 123.938 26.955 124.837 29.2973 124.935C30.7784 125.021 31.6409 124.121 31.645 122.697Z" fill="white"/>
<path id="Vector_4" d="M121.396 26.7286C121.391 26.5796 121.374 26.4312 121.343 26.2851C120.591 23.2661 119.439 20.5034 116.766 18.6033C115.218 17.491 113.397 16.8202 111.497 16.6625C110.211 16.5445 109.088 17.3013 108.897 18.3551C108.681 19.5473 109.353 20.5116 110.704 20.9144C111.321 21.0507 111.93 21.2233 112.526 21.4311C113.249 21.72 113.925 22.1135 114.532 22.5988C115.84 23.6935 116.68 25.2466 116.88 26.9402C116.949 27.5153 117.138 28.0696 117.433 28.5677C117.685 28.9419 118.052 29.2237 118.479 29.3706C118.906 29.5174 119.368 29.5212 119.797 29.3815C120.806 29.0641 121.409 28.1039 121.396 26.7286Z" fill="white"/>
<path id="Vector_5" d="M29.7847 141.598C25.9562 141.428 22.1949 140.532 18.7014 138.957C15.1588 137.366 11.9753 135.074 9.34321 132.219C7.02072 129.726 5.12751 126.864 3.74052 123.752C2.19166 120.274 1.23981 116.56 0.924933 112.766C0.786595 111.277 1.28705 110.175 2.33272 109.796C2.64107 109.671 2.97356 109.618 3.30546 109.639C3.63736 109.661 3.96014 109.757 4.24982 109.92C4.53951 110.084 4.78864 110.31 4.9787 110.583C5.16877 110.856 5.29489 111.168 5.34768 111.497C5.60401 112.758 5.62842 114.064 5.83186 115.338C6.4849 119.139 7.96561 122.751 10.1692 125.917C12.9596 130.084 16.9472 133.309 21.6065 135.165C24.0732 136.185 26.6927 136.787 29.3574 136.947C29.9108 136.98 30.4601 137.041 31.0094 137.122C31.2938 137.15 31.5698 137.234 31.8209 137.37C32.072 137.507 32.2932 137.692 32.4712 137.916C32.6492 138.139 32.7805 138.397 32.8571 138.672C32.9338 138.947 32.9544 139.235 32.9176 139.518C32.8566 140.739 32.0306 141.52 30.749 141.553C30.4153 141.61 30.102 141.598 29.7847 141.598Z" fill="white"/>
<path id="Vector_6" d="M110.745 0.00504632C113.064 0.0859347 115.364 0.459139 117.589 1.11582C120.98 2.03156 124.173 3.56392 127.008 5.63621C131.83 9.115 135.195 13.7249 137.388 19.1974C138.695 22.3747 139.444 25.754 139.601 29.1862C139.654 30.6266 138.722 31.7861 137.461 31.8553C137.142 31.879 136.821 31.8351 136.521 31.7265C136.22 31.6179 135.945 31.4471 135.715 31.2251C135.484 31.0032 135.303 30.7351 135.184 30.4385C135.064 30.1418 135.008 29.8233 135.02 29.5036C134.894 25.2965 133.661 21.4149 131.712 17.7326C130.048 14.6398 127.754 11.9301 124.978 9.77821C122.113 7.51302 118.776 5.91961 115.213 5.11541C113.716 4.81031 112.203 4.59293 110.68 4.46441C109.578 4.33421 108.54 4.1918 107.901 3.10137C107.713 2.79904 107.607 2.45255 107.595 2.09656C107.583 1.74058 107.664 1.38757 107.831 1.07285C107.998 0.758137 108.244 0.492739 108.546 0.303207C108.847 0.113674 109.193 0.00665274 109.549 -0.00715947C109.952 -0.0112282 110.351 0.00504632 110.745 0.00504632Z" fill="white"/>
<path id="Vector_7" d="M31.645 122.698C31.645 124.123 30.7946 125.022 29.2973 124.953C26.9555 124.856 24.7178 123.958 22.9582 122.41C20.6593 120.428 19.5608 117.816 19.1214 114.899C18.804 112.791 20.46 111.371 22.2055 112.213C22.693 112.516 23.0973 112.935 23.3813 113.434C23.5621 113.786 23.6701 114.17 23.6987 114.565C24.2317 117.796 26.0586 119.704 29.2973 120.387C29.5817 120.444 29.8628 120.516 30.1396 120.603C31.2788 120.965 31.6491 121.49 31.645 122.698Z" fill="white"/>
<path id="Vector_8" d="M121.398 26.7281C121.398 28.1034 120.808 29.0636 119.799 29.3932C119.37 29.5329 118.907 29.5291 118.481 29.3823C118.054 29.2354 117.687 28.9536 117.435 28.5794C117.139 28.0813 116.951 27.527 116.882 26.9519C116.681 25.2583 115.842 23.7052 114.534 22.6106C113.926 22.1252 113.25 21.7317 112.528 21.4428C111.931 21.235 111.322 21.0624 110.705 20.9261C109.354 20.5192 108.671 19.559 108.899 18.3668C109.09 17.313 110.213 16.5562 111.499 16.6742C113.398 16.8319 115.22 17.5027 116.768 18.615C119.441 20.5151 120.592 23.2778 121.345 26.2968C121.374 26.4389 121.392 26.5832 121.398 26.7281Z" fill="white"/>
<path id="Vector_9" d="M132.195 47.4864C131.215 42.1685 128.631 37.9289 124.102 34.8733C119.041 31.4636 113.572 30.9062 107.852 32.611C106.004 33.1644 104.287 34.1653 102.526 34.9953C101.773 35.3534 101.631 35.3127 101.472 34.503C101.313 33.6933 101.159 32.9569 100.984 32.1838C99.7426 26.6625 97.635 21.605 93.4645 17.5647C89.9363 14.0661 85.1772 12.0897 80.2085 12.0597C76.9765 11.9534 73.7665 12.6275 70.8503 14.0249C67.7915 15.4365 65.2017 17.6958 63.3882 20.5349C61.9155 22.885 60.7582 25.4185 59.9461 28.0703C59.6857 28.884 59.5148 28.884 58.7458 28.5056C56.512 27.3745 54.3068 26.1702 52.0079 25.2059C49.3772 24.0811 46.5353 23.5358 43.6751 23.6069H41.6163C41.5113 23.6119 41.4067 23.6227 41.303 23.6394C36.1438 24.266 32.01 26.7561 28.7183 30.6906C24.5641 35.6585 22.9488 41.3629 24.1816 47.7427C24.5885 49.8707 25.4226 51.9254 26.1143 53.9924C26.5212 55.1723 26.391 55.3229 25.1826 55.4408C23.1906 55.593 21.2096 55.8647 19.2503 56.2546C15.6809 57.0087 12.4477 58.8884 10.0264 61.6172C7.84964 64.0585 6.57205 67.0084 5.84781 70.2064C5.1743 72.9845 5.06677 75.8697 5.53161 78.6902C5.99645 81.5107 7.02417 84.2088 8.55354 86.6238C10.0346 89.0641 11.9068 91.2442 14.0952 93.0769C16.2425 94.8623 18.5041 96.5055 20.8656 97.996C23.3435 99.5584 25.7481 101.06 27.636 103.44C31.4444 108.278 35.8387 112.583 40.473 116.631C45.3067 120.854 50.535 124.471 56.4998 126.949C61.5817 129.061 66.8141 130.257 72.368 129.891C77.0715 129.578 81.3803 128.089 85.4735 125.822C90.0862 123.232 94.122 119.728 97.3339 115.524C98.6725 113.815 100.04 112.225 102.216 111.582C102.411 111.501 102.599 111.404 102.778 111.293C105.661 109.914 108.354 108.167 110.789 106.097C112.841 104.365 114.766 102.487 116.547 100.478C118.602 97.9984 120.328 95.2631 121.681 92.3405C125.049 85.33 126.361 77.5088 125.465 69.7832C125.414 69.2423 125.544 68.6997 125.836 68.2412C127.656 65.8196 129.207 63.207 130.462 60.4495C132.272 56.2872 133.029 52.019 132.195 47.4864ZM72.3273 34.5233C72.9091 32.0292 73.8124 29.6205 76.0543 28.0133C78.5281 26.2393 81.657 26.6096 83.8541 28.9207C85.5827 30.7231 86.7284 33.0044 87.1417 35.4673C87.3451 36.6269 87.4794 37.8028 87.6421 38.9746C87.6189 41.5792 86.973 44.1406 85.7583 46.4448C84.7167 48.406 83.1258 49.7609 80.9368 50.2125C80.119 50.38 79.2731 50.3516 78.4683 50.1296C77.6635 49.9075 76.9228 49.4981 76.3066 48.9349C74.3576 47.2871 73.2794 45.1306 72.5918 42.726C71.7986 40.0602 71.7075 37.2347 72.3273 34.5233ZM35.8305 85.094C33.7403 85.6871 31.5333 85.7375 29.4181 85.2405C25.8417 84.4633 22.5948 82.9904 20.1007 80.2359C19.2119 79.263 18.484 78.1545 17.9442 76.9524C16.3167 73.258 18.1111 69.8483 22.1839 68.7742C23.211 68.5587 24.2505 68.4078 25.2965 68.3226C30.8666 68.6928 35.4684 70.6336 38.8455 74.9709C39.8389 76.2189 40.409 77.751 40.473 79.3448C40.5869 81.9407 38.6909 84.2518 35.8305 85.0859V85.094ZM52.0201 58.8708C48.9767 58.3948 46.389 56.8731 44.0779 54.8672C41.6515 52.8093 39.8033 50.1547 38.7153 47.165C37.9768 45.3094 37.8781 43.2606 38.4345 41.3426C38.6596 40.5661 39.0812 39.8608 39.6585 39.2949C40.2358 38.7289 40.9494 38.3215 41.7302 38.112C44.2162 37.3267 46.5598 37.9208 48.7651 39.0234C53.5134 41.3995 56.9026 45.0533 58.6074 50.1393C58.8649 51.1281 59.0498 52.1344 59.1608 53.1501C59.2951 57.0724 56.0685 59.4933 52.0201 58.8627V58.8708ZM105.699 86.8354C103.98 89.9455 101.474 92.5496 98.4325 94.387C95.2914 96.2831 91.9225 97.459 88.1467 97.1335C85.9862 96.9504 85.9577 97.0155 85.5589 99.0783C84.3383 105.43 80.3794 109.547 74.6587 112.098C70.8504 113.799 69.3693 114.068 66.6677 114.064C62.6559 114.194 59.4538 112.53 56.923 109.527C53.1024 104.99 52.5043 99.9002 54.7096 94.505C55.857 91.7017 57.9361 89.59 60.5279 87.995C61.5003 87.401 61.5532 87.3359 60.9348 86.4367C58.9858 83.6699 59.3683 80.8503 60.9795 78.1852C64.3648 72.5744 69.3612 69.295 75.9078 68.6155C77.1171 68.4563 78.3469 68.6035 79.4844 69.0435C80.6219 69.4836 81.6306 70.2025 82.4179 71.1341C83.2031 72.0333 83.2804 72.0048 84.1471 71.2073C87.1335 68.4446 90.6083 66.7317 94.7259 66.6706C97.8018 66.6177 100.471 67.8017 102.827 69.7507C106.11 72.4605 107.636 76.0044 107.77 80.183C107.848 82.6283 106.863 84.7603 105.699 86.8273V86.8354ZM116.628 57.3084C115.065 59.9516 112.797 62.1072 110.077 63.5336C108.693 64.3644 107.114 64.8176 105.5 64.8478C104.739 64.8546 103.986 64.7032 103.287 64.4033C102.588 64.1034 101.959 63.6615 101.44 63.1056C100.921 62.5498 100.523 61.8921 100.271 61.1743C100.02 60.4565 99.92 59.6942 99.9786 58.9359C99.881 56.3767 101.016 54.2365 102.347 52.1818C104.222 49.2465 106.927 46.9341 110.118 45.5375C111.439 44.9166 112.909 44.6824 114.358 44.8621C116.799 45.1876 118.573 47.283 118.723 49.9399C118.874 52.5968 117.967 55.0096 116.628 57.3084Z" fill="white"/>
</g>
<defs>
<clipPath id="clip0_475_442">
<rect width="138.712" height="141.601" fill="white" transform="translate(0.888672)"/>
</clipPath>
</defs>
</svg>
