<svg width="18" height="18" viewBox="0 0 18 18" fill="none" xmlns="http://www.w3.org/2000/svg">
<g id="Group 698">
<path id="Vector" d="M0 3.42857C0 2.51926 0.361223 1.64719 1.00421 1.00421C1.64719 0.361223 2.51926 0 3.42857 0H13.7143C14.6236 0 15.4957 0.361223 16.1387 1.00421C16.7816 1.64719 17.1429 2.51926 17.1429 3.42857V14.5714C17.1429 15.4807 16.7816 16.3528 16.1387 16.9958C15.4957 17.6388 14.6236 18 13.7143 18H3.42857C2.51926 18 1.64719 17.6388 1.00421 16.9958C0.361223 16.3528 0 15.4807 0 14.5714V3.42857Z" fill="#F0E9E2"/>
<path id="Vector_2" d="M0 3.42857C0 2.51926 0.361223 1.64719 1.00421 1.00421C1.64719 0.361223 2.51926 0 3.42857 0H13.7143C14.6236 0 15.4957 0.361223 16.1387 1.00421C16.7816 1.64719 17.1429 2.51926 17.1429 3.42857V13.2857C17.1429 14.195 16.7816 15.0671 16.1387 15.7101C15.4957 16.3531 14.6236 16.7143 13.7143 16.7143H3.42857C2.51926 16.7143 1.64719 16.3531 1.00421 15.7101C0.361223 15.0671 0 14.195 0 13.2857V3.42857Z" fill="#E3DCD6"/>
<path id="Vector_3" d="M0 3.42857C0 2.51926 0.361223 1.64719 1.00421 1.00421C1.64719 0.361223 2.51926 0 3.42857 0H13.7143C14.6236 0 15.4957 0.361223 16.1387 1.00421C16.7816 1.64719 17.1429 2.51926 17.1429 3.42857V13.2857C17.1429 14.195 16.7816 15.0671 16.1387 15.7101C15.4957 16.3531 14.6236 16.7143 13.7143 16.7143H3.42857C2.51926 16.7143 1.64719 16.3531 1.00421 15.7101C0.361223 15.0671 0 14.195 0 13.2857V3.42857Z" fill="#FDF6EF"/>
<path id="Vector_4" d="M0 2.57143C0 1.88944 0.270917 1.23539 0.753154 0.753154C1.23539 0.270918 1.88944 0 2.57143 0H14.5714C15.2534 0 15.9075 0.270918 16.3897 0.753154C16.8719 1.23539 17.1429 1.88944 17.1429 2.57143V5.14286H0V2.57143Z" fill="#EF4D43"/>
<path id="Vector_5" d="M2.99944 0H4.71373V5.14286H2.99944V0ZM7.71373 0H9.42801V5.14286H7.71373V0ZM12.428 0H14.1423V5.14286H12.428V0ZM1.28516 6.42857C1.28516 6.31491 1.33031 6.2059 1.41068 6.12553C1.49105 6.04515 1.60006 6 1.71373 6C1.82739 6 1.9364 6.04515 2.01677 6.12553C2.09715 6.2059 2.1423 6.31491 2.1423 6.42857V7.28571C2.1423 7.39938 2.09715 7.50839 2.01677 7.58876C1.9364 7.66913 1.82739 7.71429 1.71373 7.71429C1.60006 7.71429 1.49105 7.66913 1.41068 7.58876C1.33031 7.50839 1.28516 7.39938 1.28516 7.28571V6.42857ZM14.9994 6.42857C14.9994 6.37229 15.0105 6.31656 15.0321 6.26456C15.0536 6.21257 15.0852 6.16532 15.125 6.12553C15.1648 6.08573 15.212 6.05416 15.264 6.03262C15.316 6.01109 15.3717 6 15.428 6C15.4843 6 15.54 6.01109 15.592 6.03262C15.644 6.05416 15.6913 6.08573 15.7311 6.12553C15.7709 6.16532 15.8024 6.21257 15.824 6.26456C15.8455 6.31656 15.8566 6.37229 15.8566 6.42857V7.28571C15.8566 7.34199 15.8455 7.39772 15.824 7.44972C15.8024 7.50172 15.7709 7.54896 15.7311 7.58876C15.6913 7.62856 15.644 7.66012 15.592 7.68166C15.54 7.7032 15.4843 7.71429 15.428 7.71429C15.3717 7.71429 15.316 7.7032 15.264 7.68166C15.212 7.66012 15.1648 7.62856 15.125 7.58876C15.0852 7.54896 15.0536 7.50172 15.0321 7.44972C15.0105 7.39772 14.9994 7.34199 14.9994 7.28571V6.42857ZM1.28516 9.85714C1.28516 9.74348 1.33031 9.63447 1.41068 9.5541C1.49105 9.47372 1.60006 9.42857 1.71373 9.42857C1.82739 9.42857 1.9364 9.47372 2.01677 9.5541C2.09715 9.63447 2.1423 9.74348 2.1423 9.85714V10.7143C2.1423 10.8279 2.09715 10.937 2.01677 11.0173C1.9364 11.0977 1.82739 11.1429 1.71373 11.1429C1.60006 11.1429 1.49105 11.0977 1.41068 11.0173C1.33031 10.937 1.28516 10.8279 1.28516 10.7143V9.85714ZM14.9994 9.85714C14.9994 9.80086 15.0105 9.74513 15.0321 9.69314C15.0536 9.64114 15.0852 9.59389 15.125 9.5541C15.1648 9.5143 15.212 9.48273 15.264 9.46119C15.316 9.43966 15.3717 9.42857 15.428 9.42857C15.4843 9.42857 15.54 9.43966 15.592 9.46119C15.644 9.48273 15.6913 9.5143 15.7311 9.5541C15.7709 9.59389 15.8024 9.64114 15.824 9.69314C15.8455 9.74513 15.8566 9.80086 15.8566 9.85714V10.7143C15.8566 10.7706 15.8455 10.8263 15.824 10.8783C15.8024 10.9303 15.7709 10.9775 15.7311 11.0173C15.6913 11.0571 15.644 11.0887 15.592 11.1102C15.54 11.1318 15.4843 11.1429 15.428 11.1429C15.3717 11.1429 15.316 11.1318 15.264 11.1102C15.212 11.0887 15.1648 11.0571 15.125 11.0173C15.0852 10.9775 15.0536 10.9303 15.0321 10.8783C15.0105 10.8263 14.9994 10.7706 14.9994 10.7143V9.85714ZM1.28516 13.2857C1.28516 13.172 1.33031 13.063 1.41068 12.9827C1.49105 12.9023 1.60006 12.8571 1.71373 12.8571C1.82739 12.8571 1.9364 12.9023 2.01677 12.9827C2.09715 13.063 2.1423 13.172 2.1423 13.2857V14.1429C2.1423 14.2565 2.09715 14.3655 2.01677 14.4459C1.9364 14.5263 1.82739 14.5714 1.71373 14.5714C1.60006 14.5714 1.49105 14.5263 1.41068 14.4459C1.33031 14.3655 1.28516 14.2565 1.28516 14.1429V13.2857ZM14.9994 13.2857C14.9994 13.2294 15.0105 13.1737 15.0321 13.1217C15.0536 13.0697 15.0852 13.0225 15.125 12.9827C15.1648 12.9429 15.212 12.9113 15.264 12.8898C15.316 12.8682 15.3717 12.8571 15.428 12.8571C15.4843 12.8571 15.54 12.8682 15.592 12.8898C15.644 12.9113 15.6913 12.9429 15.7311 12.9827C15.7709 13.0225 15.8024 13.0697 15.824 13.1217C15.8455 13.1737 15.8566 13.2294 15.8566 13.2857V14.1429C15.8566 14.1991 15.8455 14.2549 15.824 14.3069C15.8024 14.3589 15.7709 14.4061 15.7311 14.4459C15.6913 14.4857 15.644 14.5173 15.592 14.5388C15.54 14.5603 15.4843 14.5714 15.428 14.5714C15.3717 14.5714 15.316 14.5603 15.264 14.5388C15.212 14.5173 15.1648 14.4857 15.125 14.4459C15.0852 14.4061 15.0536 14.3589 15.0321 14.3069C15.0105 14.2549 14.9994 14.1991 14.9994 14.1429V13.2857Z" fill="#381715"/>
<path id="Vector_6" d="M11.2851 9.77573C11.4073 9.85304 11.5079 9.95998 11.5776 10.0866C11.6474 10.2132 11.6839 10.3555 11.6839 10.5C11.6839 10.6446 11.6474 10.7868 11.5776 10.9134C11.5079 11.0401 11.4073 11.147 11.2851 11.2243L7.31571 13.7383C6.74486 14.0996 6 13.6894 6 13.014V7.98602C6 7.31059 6.74486 6.90045 7.31571 7.26173L11.2851 9.77573Z" fill="#EF4D43"/>
</g>
</svg>
