<svg width="40" height="40" viewBox="0 0 40 40" fill="none" xmlns="http://www.w3.org/2000/svg">
<g id="Group 664">
<g id="Group 663">
<g id="Group 661">
<path id="Vector" d="M24.8264 8.37727C25.378 8.37727 25.8972 8.59212 26.2869 8.98257C27.0926 9.78828 27.0926 11.0987 26.2869 11.9044C25.818 12.3734 23.8368 13.0242 21.7433 13.5262C22.2447 11.4334 22.8961 9.45222 23.3658 8.98257C23.7555 8.59212 24.2748 8.37727 24.8264 8.37727ZM24.8264 7C23.9449 7 23.0641 7.33605 22.3913 8.00816C21.0471 9.35306 19.957 15.3125 19.957 15.3125C19.957 15.3125 25.9165 14.2224 27.2614 12.8775C28.6063 11.5326 28.6063 9.35306 27.2614 8.00816C26.5886 7.33605 25.7078 7 24.8264 7Z" fill="white" stroke="white" stroke-width="0.5"/>
<path id="Vector_2" d="M16.4437 8.39777C16.9953 8.39777 17.5145 8.61263 17.9043 9.00308C18.3732 9.47204 19.024 11.4532 19.526 13.5467C17.4332 13.0454 15.4521 12.3939 14.9824 11.9243C14.1767 11.1186 14.1767 9.8081 14.9824 9.00239C15.3729 8.61263 15.8914 8.39777 16.4437 8.39777ZM16.4437 7.02051C15.5622 7.02051 14.6815 7.35656 14.0087 8.02867C12.6638 9.37357 12.6638 11.5531 14.0087 12.898C15.3536 14.2429 21.313 15.333 21.313 15.333C21.313 15.333 20.2229 9.37357 18.878 8.02867C18.2059 7.35656 17.3244 7.02051 16.4437 7.02051Z" fill="white" stroke="white" stroke-width="0.5"/>
</g>
<rect id="Rectangle 506" x="9" y="15" width="23" height="17" rx="5" stroke="white" stroke-width="2"/>
<g id="Group 662">
<rect id="Rectangle 507" x="19.25" y="19.75" width="2.5" height="2.5" transform="rotate(90 19.25 19.75)" stroke="white" stroke-width="1.5"/>
<rect id="Rectangle 509" x="20" y="24" width="4" height="4" transform="rotate(90 20 24)" fill="white"/>
<rect id="Rectangle 508" x="25" y="19" width="4" height="4" transform="rotate(90 25 19)" fill="white"/>
<rect id="Rectangle 510" x="24.25" y="24.75" width="2.5" height="2.5" transform="rotate(90 24.25 24.75)" stroke="white" stroke-width="1.5"/>
</g>
</g>
</g>
</svg>
