<svg width="40" height="40" viewBox="0 0 40 40" fill="none" xmlns="http://www.w3.org/2000/svg">
<g id="Group 654">
<g id="Group 650">
<path id="Symbol" d="M17.1825 20.8952C19.7441 20.8952 21.8099 18.6641 21.8099 15.896C21.8099 13.1898 19.7338 11 17.1825 11C14.6416 11 12.5551 13.2001 12.5654 15.9063C12.5758 18.6641 14.6209 20.8952 17.1825 20.8952ZM17.1825 18.7055C15.8914 18.7055 14.8172 17.5383 14.8068 15.896C14.7965 14.3259 15.9017 13.1794 17.1825 13.1794C18.484 13.1794 19.5582 14.3156 19.5582 15.896C19.5582 17.5279 18.484 18.7055 17.1825 18.7055ZM10.8302 30.5735H23.5349C25.4251 30.5735 26.365 29.9331 26.365 28.5903C26.365 25.5536 22.6156 21.9694 17.1825 21.9694C11.7391 21.9694 8 25.5536 8 28.5903C8 29.9331 8.93994 30.5735 10.8302 30.5735ZM10.7475 28.3941C10.5513 28.3941 10.4893 28.3114 10.4893 28.1565C10.4893 26.7724 12.9269 24.1488 17.1825 24.1488C21.4381 24.1488 23.8757 26.7724 23.8757 28.1565C23.8757 28.3114 23.8137 28.3941 23.6072 28.3941H10.7475Z" fill="white"/>
<path id="Subtract" fill-rule="evenodd" clip-rule="evenodd" d="M23.1829 20.8952C25.7445 20.8952 27.8103 18.6641 27.8103 15.896C27.8103 13.1898 25.7342 11 23.1829 11C22.4698 11 21.7925 11.1733 21.1872 11.4824C21.9381 11.8651 22.5768 12.4559 23.036 13.1845C23.0846 13.1811 23.1336 13.1794 23.1829 13.1794C24.4844 13.1794 25.5586 14.3156 25.5586 15.896C25.5586 17.5279 24.4844 18.7055 23.1829 18.7055C23.1277 18.7055 23.0729 18.7033 23.0186 18.6991C22.5607 19.4304 21.928 20.0228 21.1846 20.4071C21.7879 20.72 22.4651 20.8952 23.1829 20.8952ZM29.5353 30.5735C31.4255 30.5735 32.3654 29.9331 32.3654 28.5903C32.3654 25.5536 28.616 21.9694 23.1829 21.9694C23.1583 21.9694 23.1337 21.9695 23.1092 21.9696C24.5422 22.6445 25.7181 23.6419 26.5575 24.7737C28.7008 25.6367 29.8761 27.1954 29.8761 28.1565C29.8761 28.3114 29.8141 28.3941 29.6076 28.3941H27.9876C27.9961 28.5162 28.0004 28.6377 28.0004 28.7586C28.0004 29.5935 27.7367 30.1949 27.2077 30.5735H29.5353Z" fill="white"/>
</g>
</g>
</svg>
