<svg width="40" height="40" viewBox="0 0 40 40" fill="none" xmlns="http://www.w3.org/2000/svg">
<g id="Frame 99">
<g id="Group 822">
<path id="Vector" d="M33.6548 19.0312L27.3323 19.468C27.1799 19.4785 27.0276 19.4891 26.8805 19.5758L27.0631 8.92433C26.9842 7.78169 26.0069 6.93078 24.9405 7.00444L14.686 9.24366C13.6196 9.31735 12.7686 10.2946 12.8475 11.4372L13.4469 15.6819C13.2946 15.6925 13.137 15.6268 12.9846 15.6373L6.91971 17.5871C5.77706 17.6661 4.92616 18.6433 5.00507 19.7859L7.78026 31.1515C7.85921 32.2941 8.83118 33.0689 9.89766 32.9952L32.3692 31.4427C33.4356 31.369 34.2865 30.3918 34.2129 29.3253L35.7774 20.9511C35.6985 19.8085 34.7212 18.9576 33.6548 19.0312ZM15.6367 30.7617L9.77133 31.167C9.69514 31.1722 9.68991 31.096 9.68991 31.096L6.91469 19.7305C6.90943 19.6543 6.9856 19.6491 6.9856 19.6491L13.4314 17.673C13.5075 17.6677 13.5128 17.7439 13.5128 17.7439L15.6367 30.7617ZM25.0824 30.1092L17.5411 30.6302L14.6757 11.3109C14.6704 11.2347 14.7466 11.2295 14.7466 11.2295L25.0772 8.98504C25.1534 8.97978 25.1586 9.05591 25.1586 9.05591L25.0824 30.1092ZM32.2428 29.6145L26.9868 29.9776L27.0173 21.5563C27.0121 21.4802 27.0882 21.4749 27.0882 21.4749L33.7154 21.017C33.7916 21.0118 33.7968 21.088 33.7968 21.088L32.2375 29.5383C32.3137 29.5331 32.319 29.6092 32.2428 29.6145Z" fill="white"/>
<path id="Vector_2" d="M22.2483 15.4647L20.8648 20.5042L19.2728 20.6142L20.6556 15.4381L19.2654 15.5342L19.7718 14.38L21.4865 14.2615C21.7147 14.2457 21.9017 14.2989 22.0482 14.4209C22.2042 14.551 22.2902 14.7346 22.3066 14.9714C22.317 15.1206 22.2975 15.2851 22.2483 15.4647ZM13.1428 23.4372C13.2643 23.9754 13.103 24.5371 12.6594 25.1228C12.2854 25.617 11.8213 26.0098 11.2669 26.3009L13.3189 25.8377L13.207 26.7806L10.0747 27.4875L10.1396 26.5743C10.5466 26.2912 10.9391 25.8926 11.3169 25.3786C11.7704 24.7613 11.9545 24.2635 11.8691 23.8856C11.7807 23.4935 11.5854 23.3315 11.2835 23.3997L11.2445 23.4085C11.2673 23.4623 11.2818 23.5042 11.2886 23.5341C11.3347 23.7382 11.2905 23.9288 11.1561 24.1065C11.0303 24.2755 10.8614 24.3841 10.6494 24.4319C10.4414 24.4789 10.2443 24.453 10.058 24.3542C9.86237 24.2511 9.74157 24.0976 9.69544 23.8936C9.62016 23.5596 9.72522 23.2994 10.0111 23.113C10.2031 22.9855 10.5459 22.8661 11.0401 22.7545C11.5561 22.638 11.948 22.5949 12.2154 22.6248C12.724 22.6805 13.033 22.9513 13.1428 23.4372ZM31.7914 23.5951L30.721 24.9571C30.9102 25.0734 31.0675 25.2339 31.1923 25.439C31.3276 25.6578 31.3887 25.8718 31.3753 26.0812C31.3465 26.5259 31.1564 26.8724 30.8053 27.1204C30.512 27.3268 30.1282 27.4515 29.6542 27.4947C29.353 27.5223 29.0109 27.5154 28.6275 27.4738C28.4284 27.4513 28.2593 27.3722 28.1203 27.2364C27.9743 27.0929 27.9078 26.9237 27.9203 26.7294C27.9331 26.5336 28.0209 26.3745 28.1839 26.2526C28.339 26.1377 28.5146 26.0867 28.7108 26.099C28.9105 26.1122 29.08 26.1856 29.2188 26.3195C29.365 26.4613 29.4319 26.6305 29.4191 26.8265C29.4133 26.917 29.391 26.9989 29.352 27.0718C29.5638 27.0743 29.7433 26.9949 29.8899 26.834C30.0324 26.6786 30.1112 26.486 30.126 26.2558C30.1433 25.9883 30.0393 25.7524 29.8138 25.5485C29.624 25.3793 29.4149 25.2768 29.1863 25.2411L30.0712 24.2929L28.5272 24.1933L28.8902 23.4073L31.7914 23.5951Z" fill="white"/>
</g>
</g>
</svg>
