<svg width="40" height="40" viewBox="0 0 40 40" fill="none" xmlns="http://www.w3.org/2000/svg">
<g id="Group 658">
<g id="Group 657">
<path id="Vector" d="M15.7641 27.2219C15.2979 27.2219 14.8453 27.0004 14.5534 26.6294C14.2888 26.293 14.192 25.8733 14.2877 25.4779C14.354 25.2043 14.9304 22.8793 15.2033 21.779C14.3569 21.0507 12.5985 19.5377 12.5251 19.4739C11.8449 18.8839 11.7719 18.2866 11.8307 17.8896C11.928 17.2327 12.3924 16.7492 13.0427 16.6276L13.086 16.6195L16.9919 16.2585L18.418 12.9674C18.5279 12.6741 18.683 12.4306 18.8791 12.2432C19.1726 11.9627 19.5459 11.8145 19.9587 11.8145L19.9711 11.8145C20.395 11.8176 20.7936 11.9995 21.0939 12.3267C21.2874 12.5376 21.3984 12.7612 21.4517 12.8687L21.4654 12.8963L22.86 16.235L26.7905 16.61L26.8482 16.6228C27.0955 16.678 27.413 16.7715 27.675 17.0074C27.8727 17.1855 28.1083 17.509 28.1083 18.0395C28.1083 18.622 27.7821 18.9857 27.544 19.2514C27.5124 19.2866 27.4791 19.3238 27.4443 19.3637L27.4233 19.3878L27.4007 19.4105C27.3824 19.4289 27.3815 19.4298 24.7926 21.7607C25.0586 23.0253 25.5461 25.3566 25.5864 25.6455C25.6436 26.0535 25.5374 26.4371 25.2872 26.7247C25.0976 26.9428 24.7413 27.2028 24.1209 27.2028C23.9605 27.2028 23.7513 27.1752 23.3106 26.9748L23.2681 26.9555L19.9668 25.0435C18.9472 25.6318 16.7288 26.9091 16.411 27.0689C16.2086 27.1705 15.9912 27.2219 15.7641 27.2219ZM14.2168 18.4232C14.8815 18.9954 16.1314 20.0708 16.8859 20.7199L17.3292 21.1013L17.1884 21.6689C17.1815 21.6966 16.6969 23.6497 16.3855 24.908C17.2435 24.4199 18.5693 23.6568 19.4921 23.1234L19.968 22.8483L23.5042 24.8964C23.3128 23.9617 23.0253 22.588 22.8205 21.6171L22.7074 21.0813L23.1144 20.7149C23.1369 20.6946 24.8575 19.1455 25.672 18.4121L21.5456 18.0184L19.9527 14.2048L18.2878 18.047L14.2168 18.4232Z" fill="white"/>
<circle id="Ellipse 1430" cx="20" cy="20" r="11.9969" stroke="white" stroke-width="2.00617"/>
</g>
</g>
</svg>
