<svg width="15" height="15" viewBox="0 0 15 15" fill="none" xmlns="http://www.w3.org/2000/svg">
<g id="Group 596">
<path id="Vector" d="M9.13309 0H1.3041C0.958036 4.63477e-09 0.626147 0.137473 0.381444 0.382176C0.13674 0.62688 -0.000732422 0.958769 -0.000732422 1.30483V9.13382C-0.000732422 9.47989 0.13674 9.81178 0.381444 10.0565C0.626147 10.3012 0.958036 10.4387 1.3041 10.4387H9.13309C9.47915 10.4387 9.81104 10.3012 10.0557 10.0565C10.3005 9.81178 10.4379 9.47989 10.4379 9.13382V1.30483C10.4379 0.958769 10.3005 0.62688 10.0557 0.382176C9.81104 0.137473 9.47915 0 9.13309 0ZM9.13309 1.11843C9.18253 1.11843 9.22994 1.13807 9.2649 1.17302C9.29986 1.20798 9.3195 1.25539 9.3195 1.30483V9.13382C9.3195 9.1583 9.31467 9.18254 9.30531 9.20516C9.29594 9.22777 9.28221 9.24832 9.2649 9.26563C9.24759 9.28294 9.22704 9.29667 9.20443 9.30604C9.18181 9.31541 9.15757 9.32023 9.13309 9.32023H1.3041C1.25466 9.32023 1.20725 9.30059 1.17229 9.26563C1.13733 9.23067 1.11769 9.18326 1.11769 9.13382V1.30483C1.1177 1.25539 1.13733 1.20798 1.17229 1.17302C1.20725 1.13807 1.25466 1.11843 1.3041 1.11843H9.13309ZM4.84579 11.5571C4.84579 11.4088 4.78687 11.2665 4.682 11.1617C4.57712 11.0568 4.43489 10.9979 4.28657 10.9979C4.13826 10.9979 3.99602 11.0568 3.89115 11.1617C3.78628 11.2665 3.72736 11.4088 3.72736 11.5571V12.8619C3.72736 13.208 3.86483 13.5399 4.10954 13.7846C4.35424 14.0293 4.68613 14.1667 5.03219 14.1667H12.8612C13.2072 14.1667 13.5391 14.0293 13.7838 13.7846C14.0285 13.5399 14.166 13.208 14.166 12.8619V5.03292C14.166 4.68686 14.0285 4.35497 13.7838 4.11027C13.5391 3.86556 13.2072 3.72809 12.8612 3.72809H11.5564C11.408 3.72809 11.2658 3.78701 11.1609 3.89188C11.0561 3.99675 10.9971 4.13899 10.9971 4.28731C10.9971 4.43562 11.0561 4.57786 11.1609 4.68273C11.2658 4.7876 11.408 4.84652 11.5564 4.84652H12.8612C12.9106 4.84652 12.958 4.86616 12.993 4.90112C13.0279 4.93607 13.0476 4.98349 13.0476 5.03292V12.8619C13.0476 12.9114 13.0279 12.9588 12.993 12.9937C12.958 13.0287 12.9106 13.0483 12.8612 13.0483H5.03219C4.98275 13.0483 4.93534 13.0287 4.90038 12.9937C4.86543 12.9588 4.84579 12.9114 4.84579 12.8619V11.5571Z" fill="white"/>
</g>
</svg>
