<svg width="24" height="24" viewBox="0 0 24 24" fill="none" xmlns="http://www.w3.org/2000/svg">
<g id="&#231;&#188;&#150;&#232;&#190;&#145; 1">
<path id="Vector" d="M13.395 3.207C13.5372 3.07156 13.7267 2.99727 13.9231 3.00008C14.1194 3.00288 14.3068 3.08256 14.445 3.222L18.5325 7.34475C18.6047 7.41746 18.6612 7.50418 18.6986 7.59958C18.736 7.69497 18.7534 7.79701 18.7498 7.8994C18.7462 8.00179 18.7217 8.10236 18.6777 8.19491C18.6338 8.28746 18.5713 8.37002 18.4942 8.4375L8.64525 17.064C8.50444 17.1875 8.32251 17.2539 8.13525 17.25L4.48425 17.172C4.28808 17.1679 4.10134 17.087 3.96407 16.9468C3.82681 16.8066 3.74996 16.6182 3.75 16.422V12.714C3.74998 12.6125 3.77058 12.512 3.81054 12.4186C3.85051 12.3253 3.90901 12.2411 3.9825 12.171L13.395 3.207ZM14.3902 15.2655L20.0115 15.375C20.11 15.3769 20.2071 15.3982 20.2974 15.4377C20.3877 15.4772 20.4693 15.534 20.5375 15.605C20.6058 15.676 20.6595 15.7598 20.6954 15.8515C20.7313 15.9432 20.7488 16.0411 20.7469 16.1396C20.745 16.2381 20.7237 16.3353 20.6842 16.4255C20.6447 16.5158 20.5879 16.5974 20.5169 16.6657C20.4459 16.734 20.3621 16.7876 20.2704 16.8235C20.1786 16.8594 20.0807 16.8769 19.9822 16.875L14.361 16.7655C14.2625 16.7635 14.1654 16.7422 14.0751 16.7027C13.9849 16.6632 13.9033 16.6063 13.8351 16.5352C13.7668 16.4642 13.7132 16.3804 13.6774 16.2887C13.6415 16.1969 13.624 16.099 13.626 16.0005C13.628 15.902 13.6493 15.8049 13.6888 15.7146C13.7283 15.6244 13.7852 15.5428 13.8563 15.4746C13.9273 15.4063 14.0111 15.3527 14.1028 15.3169C14.1946 15.281 14.2925 15.2635 14.391 15.2655H14.3902ZM13.8975 4.8L5.25 13.035V15.6878L7.875 15.744L16.9057 7.8345L13.8975 4.8ZM19.9747 19.0155C20.1737 19.014 20.365 19.0916 20.5067 19.2312C20.6484 19.3708 20.7289 19.561 20.7304 19.7599C20.7319 19.9588 20.6543 20.1501 20.5147 20.2919C20.3751 20.4336 20.1849 20.514 19.986 20.5155L5.256 20.625C5.05709 20.6265 4.86573 20.5489 4.72402 20.4093C4.58232 20.2697 4.50187 20.0795 4.50038 19.8806C4.49888 19.6817 4.57647 19.4904 4.71607 19.3486C4.85566 19.2069 5.04584 19.1265 5.24475 19.125L19.9747 19.0155Z" fill="white"/>
</g>
</svg>
